# xmcd CD database file
#
# Track frame offsets:
#	150
#	22030
#	39875
#	58817
#
# Disc length: 1023 seconds
#
# Revision: 0
# Processed by: cddbd v1.5PL3 Copyright (c) Steve Scherf et al.
# Submitted via: CDex 1.40Release
#
DISCID=2c03fd04
DTITLE=chamiguri! - 陽あたり良好!
DYEAR=2000
DGENRE=不明
TTITLE0=陽あたり良好!
TTITLE1=SLIDER
TTITLE2=ふうせんガム
TTITLE3=夕焼けオレンヂ
EXTD=YEAR: 2000
EXTT0=
EXTT1=
EXTT2=
EXTT3=
PLAYORDER=
